HIERARCHY
ROOT Hips
{
  OFFSET -4.44304 92.974 -5.67665
  CHANNELS 6 Xposition Yposition Zposition Zrotation Xrotation Yrotation
  JOINT ToSpine
  {
    OFFSET -2.69724 7.43032 -0.144315
    CHANNELS 3 Zrotation Xrotation Yrotation
    JOINT Spine
    {
      OFFSET -0.0310711 10.7595 1.96963
      CHANNELS 3 Zrotation Xrotation Yrotation
      JOINT Spine1
      {
        OFFSET 13.1342 3.43533 0.764692
        CHANNELS 3 Zrotation Xrotation Yrotation
        JOINT Neck
        {
          OFFSET 29.8703 7.82586 -0.130764
          CHANNELS 3 Zrotation Xrotation Yrotation
          JOINT Head
          {
            OFFSET 9.52751 0.295786 -0.907742
            CHANNELS 3 Zrotation Xrotation Yrotation
            End Site
            {
              OFFSET 16.4037 0.713936 2.7358
            }
          }
        }
        JOINT LeftShoulder
        {
          OFFSET 27.5574 4.95586 2.47156
          CHANNELS 3 Zrotation Xrotation Yrotation
          JOINT LeftArm
          {
            OFFSET 1.20734 -0.998971 20.1238
            CHANNELS 3 Zrotation Xrotation Yrotation
            JOINT LeftForeArm
            {
              OFFSET 26.8049 -0.0536703 -0.155908
              CHANNELS 3 Zrotation Xrotation Yrotation
              JOINT LeftHand
              {
                OFFSET 26.6817 0 0.320147
                CHANNELS 3 Zrotation Xrotation Yrotation
                End Site
                {
                  OFFSET 18.6119 0 0.382219
                }
              }
            }
          }
        }
        JOINT RightShoulder
        {
          OFFSET 27.5927 4.71444 -2.65209
          CHANNELS 3 Zrotation Xrotation Yrotation
          JOINT RightArm
          {
            OFFSET 2.83739 -1.17114 -18.7564
            CHANNELS 3 Zrotation Xrotation Yrotation
            JOINT RightForeArm
            {
              OFFSET 28.839 -0.0548439 1.22491
              CHANNELS 3 Zrotation Xrotation Yrotation
              JOINT RightHand
              {
                OFFSET 26.5114 0 -0.101894
                CHANNELS 3 Zrotation Xrotation Yrotation
                End Site
                {
                  OFFSET 18.2168 0 0
                }
              }
            }
          }
        }
      }
    }
  }
  JOINT LeftUpLeg
  {
    OFFSET -4.76168 -1.9167 -10.2353
    CHANNELS 3 Zrotation Xrotation Yrotation
    JOINT LeftLeg
    {
      OFFSET 2.55951 -42.0585 -8.02213
      CHANNELS 3 Zrotation Xrotation Yrotation
      JOINT LeftFoot
      {
        OFFSET 3.16357 -42.5282 -3.95426
        CHANNELS 3 Zrotation Xrotation Yrotation
        JOINT LeftToeBase
        {
          OFFSET 0.346054 -6.02161 12.8035
          CHANNELS 3 Zrotation Xrotation Yrotation
          End Site
          {
            OFFSET 0.134235 -1.35082 5.13018
          }
        }
      }
    }
  }
  JOINT RightUpLeg
  {
    OFFSET -4.94151 -1.41743 10.6446
    CHANNELS 3 Zrotation Xrotation Yrotation
    JOINT RightLeg
    {
      OFFSET -2.56294 -42.0364 -7.94377
      CHANNELS 3 Zrotation Xrotation Yrotation
      JOINT RightFoot
      {
        OFFSET -3.0952 -42.555 -4.02241
        CHANNELS 3 Zrotation Xrotation Yrotation
        JOINT RightToeBase
        {
          OFFSET -0.0828122 -6.13587 12.8035
          CHANNELS 3 Zrotation Xrotation Yrotation
          End Site
          {
            OFFSET -0.131328 -1.35082 5.13018
          }
        }
      }
    }
  }
}
MOTION
Frames:	18
Frame Time:	0.0333333
-4.46479 93.0604 -5.6121 72.1151 -25.59 -6.19998 -70.1915 0 88.8779 69.761 71.8488 12.8229 6.11604 20.2613 7.63906 -125.157 35.0968 156.972 172.096 78.0306 -142.696 0.706346 -13.0031 -21.7933 -60.7485 29.1997 -142.749 22.2211 -3.59625 -97.957 0.420957 0.000574484 0.358661 -1.66652 6.55371 39.9809 -134.945 -3.7357 94.88 12.0158 -2.67696 77.5079 0.586756 0.00100792 0.0646646 -48.3947 15.188 97.3949 -3.24872 43.9446 -8.8326 0.404196 -11.5429 -1.01665 4.65666 -12.5009 17.293 -43.9422 -14.9768 75.9837 1.11878 34.3497 -3.06707 -4.60878 -3.2927 0.874594 -0.256716 -6.23213 8.96018 
-4.44428 92.9725 -5.67312 72.0338 -25.6327 -6.15483 -70.1915 0 88.8779 70.4088 71.7931 12.6234 5.94367 20.3197 7.19558 -124.706 34.9069 156.557 172.499 78.0229 -142.826 0.725662 -12.9163 -21.4612 -60.5165 29.2876 -142.854 22.2551 -3.65232 -98.0748 0.420957 0.000574484 0.358661 -1.6915 6.5183 40.4986 -134.661 -3.29602 95.1818 11.7766 -2.64374 77.4158 0.586756 0.00100792 0.0646646 -48.3731 15.3229 97.6622 -3.11583 43.9337 -7.62501 1.3947 -11.6809 -1.05557 4.48496 -11.9338 14.7676 -43.7429 -14.8384 76.4184 1.18499 34.7 -2.53504 -2.63859 -4.1226 0.713247 -0.629153 -3.62249 7.95241 
-4.46312 93.0184 -5.62856 72.06 -25.5897 -6.19553 -70.1915 0 88.8779 72.1915 71.7944 11.4027 5.42032 20.4874 6.0438 -123.632 34.3257 155.087 176.788 78.2355 -146.578 0.762453 -12.7719 -20.5829 -59.9826 29.4322 -143.306 22.2303 -3.64708 -98.073 0.420957 0.000574484 0.358661 -1.70008 6.35161 41.3403 -134.572 -3.08503 95.225 12.2586 -2.73792 77.4852 0.586756 0.00100792 0.0646646 -48.3062 15.319 97.6899 -3.13961 44.0215 -7.73833 -0.721221 -12.4333 -1.06269 4.09966 -11.3505 14.7616 -43.9782 -14.7675 76.4266 1.15576 34.4876 -2.61648 -4.98226 -3.46526 0.909917 0.0844086 -6.72837 6.75219 
-4.45881 93.0334 -5.65168 71.9938 -25.6205 -6.22091 -70.1915 0 88.8779 72.4319 71.8392 11.1451 5.14303 20.4438 6.34836 -123.731 34.6153 155.908 173.993 78.1177 -143.879 0.735535 -12.9251 -20.9943 -60.0528 29.4322 -142.779 22.0378 -3.64625 -98.1537 0.420957 0.000574484 0.358661 -1.71301 6.43279 41.1846 -134.523 -3.03359 95.1202 11.5887 -2.59815 77.4266 0.586756 0.00100792 0.0646646 -48.2242 15.3086 97.592 -3.06686 44.057 -7.04638 -0.600808 -12.8417 -1.10152 3.77723 -10.6633 13.495 -43.9439 -14.8011 76.3343 1.20012 34.3941 -2.39688 -4.43997 -3.48532 0.857714 0.083039 -6.49495 6.40483 
-4.43887 93.0337 -5.6741 72.057 -25.6016 -6.21053 -70.1915 0 88.8779 72.6991 71.7655 10.8487 5.01359 20.3148 6.47346 -123.506 34.7802 156.635 171.009 77.8861 -140.696 0.733532 -12.8709 -21.3359 -60.0757 29.3152 -142.399 21.9131 -3.61922 -98.1433 0.420957 0.000574484 0.358661 -1.76754 6.6672 41.0196 -134.418 -3.17835 94.9034 11.8835 -2.667 77.4214 0.586756 0.00100792 0.0646646 -48.3094 15.2619 97.6069 -3.03559 43.9423 -6.91491 -0.148009 -12.7686 -1.10261 3.75387 -10.6333 13.5307 -44.0763 -14.8311 76.3088 1.20495 34.2741 -2.43418 -4.97479 -3.41064 0.908335 0.0866362 -6.58882 6.52758 
-4.45959 93.0665 -5.66551 71.9825 -25.6072 -6.23296 -70.1915 0 88.8779 71.8127 71.8023 11.6199 5.24146 20.3637 6.66042 -123.646 34.8789 156.628 171.261 77.99 -141.001 0.717915 -12.9626 -21.5296 -60.3471 29.2495 -142.362 22.457 -3.71973 -98.1466 0.420957 0.000574484 0.358661 -1.77549 6.65016 41.2059 -134.464 -2.82956 95.1663 11.5627 -2.62822 77.2686 0.586756 0.00100792 0.0646646 -48.2518 15.2713 97.6172 -3.04224 43.9191 -7.00446 -0.222137 -12.7443 -1.09942 3.71203 -10.5897 13.6793 -44.0333 -14.8104 76.3273 1.2076 34.2178 -2.42156 -4.59535 -3.48516 0.873186 0.0144177 -6.25569 6.63676 
-4.44225 93.0587 -5.68532 71.9682 -25.6777 -6.2483 -70.1915 0 88.8779 71.8667 71.8377 11.6162 5.25266 20.4348 6.52752 -123.677 34.8245 156.413 171.868 78.045 -141.792 0.728341 -12.8885 -21.4614 -60.3587 29.0139 -142.444 22.0286 -3.62943 -98.1176 0.420957 0.000574484 0.358661 -1.78397 6.64889 41.337 -134.307 -2.71828 95.1902 11.5696 -2.66698 77.1059 0.586756 0.00100792 0.0646646 -48.2475 15.268 97.5693 -3.0594 43.971 -7.06226 -0.386749 -12.8843 -1.10848 3.67485 -10.5561 13.8411 -44.0322 -14.7703 76.3927 1.21303 34.1781 -2.40764 -4.35456 -3.67955 0.856783 -0.0591564 -5.91299 6.73493 
-4.44688 93.0535 -5.679 71.9691 -25.7346 -6.23321 -70.1915 0 88.8779 72.0905 71.8224 11.4343 5.18082 20.4061 6.53416 -123.833 34.8978 156.677 171.619 78.0171 -141.73 0.735994 -12.8173 -21.4919 -60.3365 29.0143 -142.384 22.0557 -3.67021 -98.2028 0.420957 0.000574484 0.358661 -1.80915 6.70762 41.4618 -134.151 -2.72504 95.3222 11.814 -2.77816 76.8763 0.586756 0.00100792 0.0646646 -48.3114 15.337 97.6177 -3.02303 43.8982 -6.75103 -0.557902 -12.8976 -1.10698 3.73913 -10.5167 12.9242 -43.9693 -14.684 76.5256 1.19283 34.2769 -2.51644 -4.31977 -3.72056 0.855075 -0.12404 -5.51434 6.67206 
-4.4666 93.0609 -5.64557 71.9247 -25.767 -6.29866 -70.1915 0 88.8779 71.9562 71.899 11.393 5.11403 20.4473 6.67616 -123.948 34.9167 156.689 172.042 78.0516 -142.179 0.733372 -12.8567 -21.4083 -60.2252 29.1395 -142.524 22.2113 -3.67707 -98.1518 0.420957 0.000574484 0.358661 -1.77345 6.59372 41.4118 -134.204 -2.85589 95.2404 11.7709 -2.77975 76.8235 0.586756 0.00100792 0.0646646 -48.2821 15.3615 97.7437 -3.04079 43.9421 -6.97134 -0.465355 -13.1798 -1.1326 3.36205 -10.0311 13.6374 -43.8679 -14.6727 76.6105 1.16308 34.3475 -2.66109 -4.29062 -3.81151 0.855865 -0.168757 -5.54941 7.10675 
-4.44073 93.0429 -5.62532 71.9118 -25.7197 -6.25854 -70.1915 0 88.8779 71.6656 71.8676 11.7256 5.26567 20.4601 6.57233 -124.031 34.9384 156.689 171.757 78.0407 -141.892 0.733718 -12.8758 -21.3024 -60.1692 29.2709 -142.691 22.178 -3.62425 -98.0414 0.420957 0.000574484 0.358661 -1.79223 6.6496 41.4552 -134.344 -2.7997 95.2119 11.5851 -2.73831 76.8041 0.586756 0.00100792 0.0646646 -48.2532 15.3966 97.6932 -3.03979 43.9093 -6.99634 -0.401156 -12.9163 -1.11115 3.64603 -10.4561 13.4886 -43.88 -14.7608 76.3137 1.16971 34.3938 -2.57548 -4.54944 -3.87767 0.883473 -0.214855 -5.49131 7.40289 
-4.45103 93.0317 -5.58186 71.8996 -25.6586 -6.25767 -70.1915 0 88.8779 71.8675 71.8672 11.4218 5.10405 20.4098 6.6846 -124.011 35.0315 156.929 170.677 77.9851 -140.775 0.741477 -12.81 -21.2972 -60.1465 29.181 -142.711 22.0475 -3.652 -98.1631 0.420957 0.000574484 0.358661 -1.78698 6.64803 41.3845 -134.317 -2.87041 95.0798 11.7004 -2.75202 76.8695 0.586756 0.00100792 0.0646646 -48.1868 15.3866 97.5948 -3.03947 43.9691 -6.92285 -0.343407 -12.6956 -1.09396 3.79856 -10.6829 13.4018 -43.8225 -14.8461 76.1563 1.15067 34.5279 -2.68991 -4.7304 -3.89957 0.901715 -0.232649 -5.64889 7.81208 
-4.445 93.0289 -5.52411 71.9744 -25.5263 -6.13518 -70.1915 0 88.8779 71.8927 71.7858 11.3936 5.24984 20.3525 6.56648 -123.976 34.9498 156.803 171.023 77.9676 -141.075 0.746328 -12.7813 -21.2319 -60.2533 29.1167 -142.729 21.9081 -3.64051 -98.1963 0.420957 0.000574484 0.358661 -1.80488 6.65901 41.6012 -134.477 -2.84136 95.2678 11.6895 -2.74983 76.8697 0.586756 0.00100792 0.0646646 -48.142 15.4051 97.3948 -3.08326 44.1211 -7.13708 -0.724651 -13.3465 -1.14415 3.28353 -9.92514 13.7598 -43.9334 -14.8246 76.07 1.1753 34.5844 -2.50276 -4.71308 -3.84046 0.897844 -0.108529 -5.89472 7.13116 
-4.40698 92.9584 -5.48556 72.0604 -25.4551 -6.06231 -70.1915 0 88.8779 71.8411 71.8079 11.4102 5.32709 20.4125 6.4579 -123.56 34.79 156.273 171.248 78.0035 -140.93 0.73534 -12.8928 -21.1551 -60.2943 29.1703 -142.887 21.7609 -3.56978 -98.0905 0.420957 0.000574484 0.358661 -1.81283 6.59164 42.0046 -134.54 -2.51966 95.4661 11.5899 -2.73698 76.8212 0.586756 0.00100792 0.0646646 -48.2135 15.4325 97.3569 -3.00407 44.0505 -6.54328 -0.297266 -12.8923 -1.11048 3.85968 -10.676 12.6811 -43.9133 -14.827 76.1015 1.12719 34.8525 -2.84096 -4.96476 -3.94065 0.925682 -0.0624196 -6.44837 7.6633 
-4.41329 92.9563 -5.3941 72.078 -25.4877 -6.05987 -70.1915 0 88.8779 71.9414 71.8871 11.3608 5.27086 20.5056 6.36435 -123.462 34.7413 156.23 171.547 77.9924 -140.978 0.729994 -12.9492 -21.1099 -60.3179 29.1769 -143.083 21.5915 -3.53169 -98.0719 0.420957 0.000574484 0.358661 -1.82261 6.62368 42.0117 -134.478 -2.35365 95.3756 11.147 -2.58695 77.0186 0.586756 0.00100792 0.0646646 -48.1962 15.4877 97.2868 -3.02438 44.1837 -6.57675 -0.378257 -13.1097 -1.1278 3.57218 -10.1862 12.5046 -43.8834 -14.7492 76.1611 1.14501 35.0145 -2.52283 -5.03065 -3.94376 0.932274 0.0898604 -6.74531 6.75567 
-4.38717 92.9214 -5.29685 72.1097 -25.4805 -5.95501 -70.1915 0 88.8779 72.2118 71.907 11.1273 5.17792 20.4964 6.39231 -123.585 34.893 156.269 171.425 78.1091 -140.93 0.73134 -12.9215 -21.1853 -60.3038 29.0573 -143.309 21.5656 -3.48899 -97.9791 0.420957 0.000574484 0.358661 -1.80725 6.59179 41.9201 -134.308 -2.53047 95.3196 11.1773 -2.56904 77.131 0.586756 0.00100792 0.0646646 -48.1975 15.5819 97.1675 -3.10396 44.3041 -7.15925 -0.225122 -12.9449 -1.11601 3.68881 -10.6239 14.1604 -43.8528 -14.5178 76.3877 1.12356 35.2414 -2.55738 -4.67841 -4.15307 0.905998 0.140789 -6.5178 5.91982 
-4.35292 92.8466 -5.1873 72.2238 -25.3736 -5.73555 -70.1915 0 88.8779 72.647 71.9186 10.696 4.96667 20.4788 6.43715 -122.907 34.6433 155.965 172.035 78.0604 -141.052 0.701378 -13.1814 -21.1861 -60.1147 28.8523 -143.286 20.6742 -3.34579 -98.0136 0.420957 0.000574484 0.358661 -1.72784 6.45557 41.3186 -133.548 -3.54099 94.725 9.88259 -2.24185 77.2655 0.586756 0.00100792 0.0646646 -48.1671 15.6388 96.7615 -3.10795 44.462 -7.02684 -0.388453 -12.9164 -1.11119 3.97756 -11.0814 14.2043 -43.9063 -14.4048 76.2744 1.18505 35.6024 -2.14225 -5.19118 -4.20936 0.956088 0.345055 -6.85598 4.53067 
-4.33451 92.7921 -5.09058 72.2996 -25.3585 -5.62772 -70.1915 0 88.8779 72.8308 71.7367 10.7454 5.04732 20.3845 6.1426 -122.256 34.3843 155.92 172.407 77.897 -140.58 0.695506 -13.3019 -20.8609 -59.2059 28.4478 -143.919 16.8649 -2.63855 -97.8414 0.420957 0.000574484 0.358661 -1.58208 6.29824 39.7031 -130.228 -6.40722 94.0625 2.62763 -0.560348 78.2313 0.586756 0.00100792 0.0646646 -48.11 15.6087 96.3807 -3.11361 44.7502 -6.85661 -0.763192 -13.3549 -1.14529 3.7561 -10.7295 14.1352 -43.8443 -14.4007 76.2377 1.21332 36.0208 -2.04319 -4.97345 -4.49398 0.945799 0.342239 -6.64865 4.25116 
-4.30305 92.6503 -5.18598 72.363 -25.334 -5.65495 -70.1915 0 88.8779 73.5181 71.3083 10.1831 5.23503 19.8386 6.45652 -123.101 34.9041 157.804 170.437 77.6225 -138.472 0.631303 -13.8832 -20.9111 -57.2102 27.4333 -145.811 7.20992 -1.00008 -96.9717 0.420957 0.000574484 0.358661 -1.33419 6.45742 35.3961 -122.552 -12.9115 94.656 -10.3649 1.42191 81.5773 0.586756 0.00100792 0.0646646 -47.8639 15.1206 95.455 -3.08692 45.2955 -6.08693 -1.70175 -13.6173 -1.15549 4.11679 -11.1417 13.0351 -43.5663 -14.5617 76.5274 1.1888 36.5707 -2.4613 -4.85698 -4.92101 0.950369 0.232045 -6.52914 5.08521 
